<svg width="114" height="155" viewBox="0 0 114 155" fill="none" xmlns="http://www.w3.org/2000/svg">
<path d="M0.931397 154.026C0.742953 153.857 0.593505 153.65 0.493475 153.417C0.393446 153.185 0.345242 152.933 0.352226 152.68C0.369915 152.389 0.448858 152.104 0.583896 151.845L12.5322 126.623C12.7767 126.13 13.1387 125.706 13.5863 125.387C14.0761 125.056 14.6577 124.888 15.2485 124.906H15.7176C16.3084 124.888 16.89 125.056 17.3799 125.387C17.8274 125.706 18.1895 126.13 18.434 126.623L30.3823 151.845C30.5187 152.104 30.5995 152.388 30.6197 152.68C30.6244 152.933 30.5751 153.184 30.4753 153.416C30.3754 153.648 30.2272 153.856 30.0405 154.026C29.6213 154.396 29.0755 154.589 28.5173 154.565C28.0967 154.572 27.6823 154.464 27.3184 154.252C26.9676 154.053 26.6835 153.754 26.5018 153.394L23.4554 146.858H7.51078L4.46434 153.394C4.28263 153.754 3.9985 154.053 3.64771 154.252C3.28558 154.463 2.87327 154.571 2.45462 154.565C1.89623 154.59 1.35005 154.397 0.931397 154.026ZM9.14984 143.384H21.8047L15.4802 129.766L9.14984 143.384Z" fill="#1B1E2E"/>
<path d="M38.1083 154.026C37.9146 153.86 37.7597 153.653 37.6546 153.421C37.5495 153.188 37.4968 152.936 37.5002 152.68V126.832C37.4982 126.575 37.5515 126.321 37.6564 126.087C37.7614 125.852 37.9155 125.644 38.1083 125.474C38.5128 125.091 39.0517 124.883 39.6083 124.894C40.1712 124.887 40.7157 125.095 41.1316 125.474C41.331 125.639 41.4912 125.847 41.6004 126.082C41.7097 126.316 41.7651 126.573 41.7629 126.832V152.68C41.7659 152.938 41.7107 153.193 41.6014 153.426C41.492 153.659 41.3314 153.864 41.1316 154.026C40.7068 154.386 40.1649 154.578 39.6083 154.565C39.0582 154.582 38.5223 154.389 38.1083 154.026Z" fill="#1B1E2E"/>
<path d="M51.4636 153.811C51.2696 153.647 51.114 153.441 51.0079 153.21C50.9019 152.978 50.8478 152.726 50.8497 152.472V127.046C50.8483 126.788 50.9025 126.533 51.0084 126.298C51.1144 126.063 51.2696 125.853 51.4636 125.683C51.8681 125.3 52.4069 125.092 52.9636 125.103H62.381C65.9409 125.103 68.9623 125.809 71.445 127.22C73.7006 128.436 75.5854 130.241 76.8992 132.443C78.213 134.645 78.9067 137.162 78.9067 139.727C78.9067 142.292 78.213 144.809 76.8992 147.012C75.5854 149.214 73.7006 151.018 71.445 152.234C68.9584 153.641 65.9371 154.345 62.381 154.345H52.9636C52.4139 154.365 51.8772 154.175 51.4636 153.811ZM61.8887 150.796C64.215 150.847 66.5225 150.367 68.636 149.392C70.46 148.544 72.0078 147.197 73.1014 145.506C74.1438 143.767 74.6944 141.776 74.6944 139.747C74.6944 137.719 74.1438 135.728 73.1014 133.988C71.9983 132.293 70.4408 130.942 68.607 130.091C66.4944 129.12 64.1897 128.64 61.8655 128.688H55.1471V150.807L61.8887 150.796Z" fill="#1B1E2E"/>
<path d="M83.7244 154.026C83.5359 153.857 83.3865 153.65 83.2864 153.417C83.1864 153.185 83.1382 152.933 83.1452 152.68C83.1629 152.389 83.2418 152.104 83.3769 151.845L95.3252 126.623C95.5696 126.13 95.9317 125.706 96.3793 125.387C96.8691 125.056 97.4507 124.888 98.0415 124.906H98.5106C99.1014 124.888 99.683 125.056 100.173 125.387C100.62 125.706 100.982 126.13 101.227 126.623L113.175 151.845C113.312 152.104 113.393 152.388 113.413 152.68C113.417 152.933 113.368 153.184 113.268 153.416C113.168 153.648 113.02 153.856 112.834 154.026C112.414 154.396 111.868 154.589 111.31 154.565C110.89 154.572 110.475 154.464 110.111 154.252C109.761 154.053 109.476 153.754 109.295 153.394L106.248 146.858H90.3038L87.2631 153.394C87.0776 153.753 86.7919 154.052 86.4407 154.252C86.0786 154.463 85.6662 154.571 85.2476 154.565C84.6892 154.59 84.143 154.397 83.7244 154.026ZM91.9428 143.384H104.598L98.2731 129.766L91.9428 143.384Z" fill="#1B1E2E"/>
<path fill-rule="evenodd" clip-rule="evenodd" d="M36.2608 66.9507H77.6078C80.4791 66.9368 83.2393 68.0608 85.2858 70.0775C87.3323 72.0942 88.4989 74.8398 88.531 77.7148C88.4989 80.5898 87.3323 83.3353 85.2858 85.352C83.2393 87.3687 80.4791 88.4928 77.6078 88.4788H35.5079C32.6356 88.4943 29.874 87.3709 27.8262 85.3541C25.7785 83.3372 24.611 80.5908 24.5789 77.7148C24.611 74.8388 25.7785 72.0923 27.8262 70.0755C29.874 68.0586 32.6356 66.9352 35.5079 66.9507H36.2608ZM79.6581 0.574377H37.4307C34.5585 0.558874 31.7968 1.68226 29.7491 3.69912C27.7013 5.71599 26.5339 8.46241 26.5018 11.3384C26.5339 14.2144 27.7013 16.9609 29.7491 18.9777C31.7968 20.9946 34.5585 22.118 37.4307 22.1025H78.4419C81.4872 22.0885 84.4144 23.2814 86.5846 25.4209C88.7548 27.5603 89.9917 30.4725 90.0253 33.5219C90.0253 39.8028 84.8127 45.4226 78.4419 45.4226H35.1893C17.0207 45.4226 2.24609 59.7128 2.24609 77.68C2.24609 95.5717 17.2003 110.192 35.3978 110.001H78.3492C96.5467 110.192 111.501 95.5717 111.501 77.68V75.2616V31.9502C111.501 14.6906 97.1722 0.574377 79.6581 0.574377Z" fill="#CD2826"/>
<path d="M77.2713 74.125H73.3735C70.9009 74.125 68.8965 76.1321 68.8965 78.6081V78.6139C68.8965 81.0898 70.9009 83.097 73.3735 83.097H77.2713C79.7439 83.097 81.7483 81.0898 81.7483 78.6139V78.6081C81.7483 76.1321 79.7439 74.125 77.2713 74.125Z" fill="#CD2826"/>
</svg>
